<svg width="23" height="24" viewBox="0 0 23 24" fill="none" xmlns="http://www.w3.org/2000/svg">
<path d="M10.2185 0.712952C15.7211 0.712952 20.187 5.17884 20.187 10.6814C20.187 16.1841 15.7211 20.6499 10.2185 20.6499C4.71589 20.6499 0.25 16.1841 0.25 10.6814C0.25 5.17884 4.71589 0.712952 10.2185 0.712952ZM10.2185 18.4347C14.5016 18.4347 17.9718 14.9646 17.9718 10.6814C17.9718 6.39721 14.5016 2.92817 10.2185 2.92817C5.93426 2.92817 2.46522 6.39721 2.46522 10.6814C2.46522 14.9646 5.93426 18.4347 10.2185 18.4347ZM19.6166 18.5134L22.75 21.6457L21.1827 23.213L18.0504 20.0795L19.6166 18.5134V18.5134Z" fill="#E7E09D"/>
</svg>
