<svg width="27" height="24" viewBox="0 0 27 24" fill="none" xmlns="http://www.w3.org/2000/svg">
<path d="M17.9878 0.546936L22.2692 7.96294H26.8332V10.6296H25.2772L24.2678 22.7403C24.2401 23.0735 24.0882 23.3841 23.8422 23.6105C23.5962 23.837 23.2742 23.9628 22.9398 23.9629H4.05984C3.7255 23.9628 3.40343 23.837 3.15747 23.6105C2.9115 23.3841 2.75959 23.0735 2.73184 22.7403L1.72117 10.6296H0.166504V7.96294H4.72917L9.01184 0.546936L11.3212 1.88027L7.80917 7.96294H19.1892L15.6785 1.88027L17.9878 0.546936V0.546936ZM22.6012 10.6296H4.39717L5.2865 21.2963H21.7118L22.6012 10.6296ZM14.8332 13.2963V18.6296H12.1665V13.2963H14.8332ZM9.49984 13.2963V18.6296H6.83317V13.2963H9.49984ZM20.1665 13.2963V18.6296H17.4998V13.2963H20.1665Z" fill="#E7E09D"/>
</svg>
